<?xml version="1.0" encoding="UTF-8" standalone="no"?>
<svg width="320.63599" height="291.06601">
	<path d="M20 10 h10 l10 20 z" stroke="hsl(18, 48%, 8%)" stroke-width=".5" fill="hsl(18, 48%, 8%)"></path>
	<path d="M280 30 l10 -20 h10 z" stroke="hsl(18, 48%, 8%)" stroke-width=".5" fill="hsl(18, 48%, 8%)"></path>

	<path d="M30 10 l10 -10 v30 z" stroke="hsl(14, 61%, 38%)" stroke-width=".5" fill="hsl(14, 61%, 38%)"></path>
	<path d="M280 0 l10 10 l-10 20 z" stroke="hsl(14, 61%, 38%)" stroke-width=".5" fill="hsl(14, 61%, 38%)"></path>

	<path d="M40 30 l10 60 l30 60 l-40 -60 z" stroke="hsl(14, 61%, 38%)" stroke-width=".5" fill="hsl(14, 61%, 38%)"></path>
	<path d="M240 150 l30 -60 l10 -60 v60 z" stroke="hsl(14, 61%, 38%)" stroke-width=".5" fill="hsl(14, 61%, 38%)"></path>

	<path d="M40 30 l30 60 l10 60 l-30 -60 z" stroke="hsl(14, 59%, 42%)" stroke-width=".5" fill="hsl(14, 59%, 42%)"></path>
	<path d="M240 150 l10 -60 l30 -60 l-10 60 z" stroke="hsl(14, 59%, 42%)" stroke-width=".5" fill="hsl(14, 59%, 42%)"></path>

	<path d="M40 30 l80 60 h-50 z" stroke="hsl(15, 93%, 7 1)" stroke-width=".5" fill="hsl(15, 93%, 77%)"></path>
	<path d="M200 90 l80 -60 l-30 60 z" stroke="hsl(15, 93%, 77%)" stroke-width=".5" fill="hsl(15, 93%, 77%)"></path>

	<path d="M70 90 h50 l-40 60 z" stroke="hsl(11, 76%, 62%)" stroke-width=".5" fill="hsl(11, 76%, 62%)"></path>
	<path d="M200 90 h50 l-10 60 z" stroke="hsl(11, 76%, 62%)" stroke-width=".5" fill="hsl(11, 76%, 62%)"></path>

	<path d="M80 150 l40 -60 l-15 50 z" stroke="hsl(21, 100%, 89%)" stroke-width=".5" fill="hsl(21, 100%, 89%)"></path>
	<path d="M200 90 l40 60 l-25 -10 z" stroke="hsl(21, 100%, 89%)" stroke-width=".5" fill="hsl(21, 100%, 89%)"></path>

	<path d="M80 150 l25 -10 l-10 15 z" stroke="hsl(28, 100%, 97%)" stroke-width=".5" fill="hsl(28, 100%, 97%)"></path>
	<path d="M215 140 l25 10 l-15 5 z" stroke="hsl(28, 100%, 97%)" stroke-width=".5" fill="hsl(28, 100%, 97%)"></path>

	<path d="M80 150 l15 5 l35 65 z" stroke="hsl(12, 58%, 52%)" stroke-width=".5" fill="hsl(12, 58%, 52%)"></path>
	<path d="M190 220 l35 -65 l15 -5 z" stroke="hsl(12, 58%, 52%)" stroke-width=".5" fill="hsl(12, 58%, 52%)"></path>

	<path d="M95 155 l10 -15 l25 80 z" stroke="hsl(21, 100%, 89%)" stroke-width=".5" fill="hsl(21, 100%, 89%)"></path>
	<path d="M190 220 l25 -80 l10 15 z" stroke="hsl(21, 100%, 89%)" stroke-width=".5" fill="hsl(21, 100%, 89%)"></path>

	<path d="M20 120 l20 -30 l40 60 l-10 20 z" stroke="hsl(0, 0%, 75%)" stroke-width=".5" fill="hsl(0, 0%, 75%)"></path>
	<path d="M240 150 l40 -60 l20 30 l-50 50 z" stroke="hsl(0, 0%, 75%)" stroke-width=".5" fill="hsl(0, 0%, 75%)"></path>

	<path d="M70 170 l10 -20 l50 70 z" stroke="hsl(18, 48%, 8%)" stroke-width=".5" fill="hsl(18, 48%, 8%)"></path>
	<path d="M190 220 l50 -70 l10 20 z" stroke="hsl(18, 48%, 8%)" stroke-width=".5" fill="hsl(18, 48%, 8%)"></path>

	<path d="M89 170 v-5 l10 14 z" stroke="#fff" stroke-width=".5" fill="#fff"></path>
	<path d="M231 170 v-5 l-10 14 z" stroke="#fff" stroke-width=".5" fill="#fff"></path>

	<path d="M0 180 l20 -60 l50 50 l60 50 z" stroke="hsl(0, 0%, 87%)" stroke-width=".5" fill="hsl(0, 0%, 87%)"></path>
	<path d="M190 220 l60 -50 l50 -50 l20 60 z" stroke="hsl(0, 0%, 87%)" stroke-width=".5" fill="hsl(0, 0%, 87%)"></path>

	<path d="M55 170 h15 l60 50 z" stroke="#fff" stroke-width=".5" fill="#fff"></path>
	<path d="M250 170 h15 l-75 50 z" stroke="#fff" stroke-width=".5" fill="#fff"></path>

	<path d="M0 180 l130 40 h-90 z" stroke="hsl(0, 0%, 92%)" stroke-width=".5" fill="hsl(0, 0%, 92%)"></path>
	<path d="M190 220 l130 -40 l-40 40 z" stroke="hsl(0, 0%, 92%)" stroke-width=".5" fill="hsl(0, 0%, 92%)"></path>

	<path d="M40 220 h90 l-30 20 z" stroke="#fff" stroke-width=".5" fill="#fff"></path>
	<path d="M190 220 h90 l-60 20 z" stroke="#fff" stroke-width=".5" fill="#fff"></path>

	<path d="M100 240 l30 -20 l30 40 z" stroke="hsl(15, 93%, 77%)" stroke-width=".5" fill="hsl(15, 93%, 77%)"></path>
	<path d="M160 260 l30 -40 l30 20 z" stroke="hsl(15, 93%, 77%)" stroke-width=".5" fill="hsl(15, 93%, 77%)"></path>

	<path d="M40 220 l60 20 v20 z" stroke="hsl(0, 0%, 75%)" stroke-width=".5" fill="hsl(0, 0%, 75%)"></path>
	<path d="M220 240 l60 -20 l-60 40 z" stroke="hsl(0, 0%, 75%)" stroke-width=".5" fill="hsl(0, 0%, 75%)"></path>

	<path d="M100 240 l30 30 l-30 -10 z" stroke="hsl(14, 62%, 35%)" stroke-width=".5" fill="hsl(14, 62%, 35%)"></path>
	<path d="M190 270 l30 -30 v20 z" stroke="hsl(14, 62%, 35%)" stroke-width=".5" fill="hsl(14, 62%, 35%)"></path>

	<path d="M100 240 l60 20 l-30 10 z" stroke="hsl(14, 59%, 42%)" stroke-width=".5" fill="hsl(14, 59%, 42%)"></path>
	<path d="M160 260 l60 -20 l-30 30 z" stroke="hsl(14, 59%, 42%)" stroke-width=".5" fill="hsl(14, 59%, 42%)"></path>

	<path d="M40 220 l60 40 l-20 20 l-20 -20 z" stroke="hsl(0, 0%, 92%)" stroke-width=".5" fill="hsl(0, 0%, 92%)"></path>
	<path d="M220 260 l60 -40 l-20 40 l-20 20 z" stroke="hsl(0, 0%, 92%)" stroke-width=".5" fill="hsl(0, 0%, 92%)"></path>

	<path d="M80 280 l20 -20 l10 30 z" stroke="hsl(0, 0%, 87%)" stroke-width=".5" fill="hsl(0, 0%, 87%)"></path>
	<path d="M210 290 l10 -30 l20 20 z" stroke="hsl(0, 0%, 87%)" stroke-width=".5" fill="hsl(0, 0%, 87%)"></path>

	<path d="M100 260 l30 10 l-20 20 z" stroke="hsl(0, 0%, 75%)" stroke-width=".5" fill="hsl(0, 0%, 75%)"></path>
	<path d="M190 270 l30 -10 l-10 30 z" stroke="hsl(0, 0%, 75%)" stroke-width=".5" fill="hsl(0, 0%, 75%)"></path>

	<path d="M120 90 h80 l-40 20 z" stroke="hsl(14, 58%, 44%)" stroke-width=".5" fill="hsl(14, 58%, 44%)"></path>
	<path d="M120 90 l40 20 l40 -20 l-40 70 z" stroke="hsl(12, 61%, 54%)" stroke-width=".5" fill="hsl(12, 61%, 54%)"></path>
	<path d="M105 140 l15 -50 l40 70 l40 -70 l15 50 l-25 80 l-30 -20 l-30 20 z" stroke="hsl(22, 96%, 82%)" stroke-width=".5" fill="hsl(22, 96%, 82%)"></path>
	<path d="M130 220 l30 -20 l30 20 z" stroke="hsl(21, 100%, 89%)" stroke-width=".5" fill="hsl(21, 100%, 89%)"></path>
	<path d="M130 220 h60 l-30 10 z" stroke="hsl(17, 42%, 19%)" stroke-width=".5" fill="hsl(17, 42%, 29%)"></path>
	<path d="M130 220 l30 10 v30 z" stroke="hsl(15, 48%, 11%)" stroke-width=".5" fill="hsl(15, 48%, 20%)"></path>
	<path d="M160 230 l30 -10 l-30 40 z" stroke="hsl(18, 48%, 8%)" stroke-width=".5" fill="hsl(18, 48%, 8%)"></path>
	<path d="M130 270 l30 -10 l30 10 l-30 -5 z" stroke="hsl(16, 46%, 8%)" stroke-width=".5" fill="hsl(16, 46%, 8%)"></path>
	<path d="M130 270 l30 -5 l30 5 z" stroke="hsl(0, 0%, 75%)" stroke-width=".5" fill="hsl(0, 0%, 75%)"></path>
	<path d="M130 270 h60 l-20 15 l-10 -5 l-10 5 z" stroke="hsl(0, 0%, 91%)" stroke-width=".5" fill="hsl(0, 0%, 91%)"></path>
	<path d="M150 285 l10 -5 l10 5 z" stroke="hsl(0, 0%, 75%)" stroke-width=".5" fill="hsl(0, 0%, 75%)"></path>
</svg>
